<svg xmlns="http://www.w3.org/2000/svg" version="1.1" xmlns:xlink="http://www.w3.org/1999/xlink" width="512" height="512" x="0" y="0" viewBox="0 0 448 448" style="enable-background:new 0 0 512 512" xml:space="preserve" class=""><g><path d="M428.505 26.016c3.84-4.8 4.608-11.392 1.92-16.928C427.737 3.52 422.137 0 415.993 0h-384a16.05 16.05 0 0 0-14.432 9.056c-2.656 5.536-1.92 12.128 1.92 16.928l188.512 235.648V416h-64c-8.832 0-16 7.168-16 16s7.168 16 16 16h160c8.832 0 16-7.168 16-16s-7.168-16-16-16h-64V261.632L428.505 26.016zM90.905 64l-25.6-32h317.408l-25.6 32H90.905z" fill="#000000" opacity="1" data-original="#000000" class=""></path></g></svg>