<svg xmlns="http://www.w3.org/2000/svg" version="1.1" xmlns:xlink="http://www.w3.org/1999/xlink" width="512" height="512" x="0" y="0" viewBox="0 0 512 512" style="enable-background:new 0 0 512 512" xml:space="preserve" class=""><g><path d="M437.019 74.981C388.667 26.629 324.38 0 256 0S123.333 26.629 74.981 74.981 0 187.62 0 256s26.629 132.667 74.981 181.019S187.62 512 256 512s132.667-26.629 181.019-74.981C485.371 388.667 512 324.38 512 256s-26.629-132.667-74.981-181.019zm-14.197 347.841c-44.56 44.56-103.805 69.1-166.822 69.1s-122.262-24.54-166.822-69.1-69.1-103.805-69.1-166.822 24.54-122.262 69.1-166.822 103.805-69.1 166.822-69.1 122.262 24.54 166.822 69.1c44.56 44.56 69.1 103.805 69.1 166.822s-24.541 122.262-69.1 166.822z" fill="#000000" opacity="1" data-original="#000000" class=""></path><path d="M256 71.865C154.468 71.865 71.865 154.468 71.865 256c0 5.545 4.495 10.039 10.039 10.039s10.04-4.494 10.04-10.039c0-90.461 73.596-164.056 164.056-164.056 5.545 0 10.039-4.495 10.039-10.04S261.544 71.865 256 71.865zM430.096 245.961c-5.545 0-10.039 4.495-10.039 10.039 0 90.461-73.596 164.056-164.056 164.056-5.545 0-10.039 4.495-10.039 10.039 0 5.545 4.495 10.039 10.039 10.039 101.532 0 184.135-82.602 184.135-184.135-.001-5.544-4.496-10.038-10.04-10.038zM270.458 245.96H241.542c-13.989 0-25.37-11.381-25.37-25.37v-16.819c0-13.989 11.381-25.37 25.37-25.37h32.038c12.268 0 22.248 9.98 22.248 22.248 0 5.545 4.495 10.039 10.039 10.039s10.039-4.495 10.039-10.039c0-23.339-18.988-42.326-42.326-42.326h-7.541v-24.927c0-5.545-4.495-10.039-10.039-10.039-5.545 0-10.039 4.495-10.039 10.039v24.927h-4.419c-25.06 0-45.448 20.388-45.448 45.448v16.819c0 25.06 20.388 45.448 45.448 45.448H270.458c13.989 0 25.37 11.381 25.37 25.37v16.819c0 13.989-11.381 25.37-25.37 25.37H238.42c-12.268 0-22.248-9.98-22.248-22.248 0-5.545-4.495-10.039-10.039-10.039s-10.039 4.495-10.039 10.039c0 23.339 18.988 42.326 42.326 42.326h7.541v24.927c0 5.545 4.495 10.039 10.039 10.039 5.545 0 10.039-4.495 10.039-10.039v-24.927h4.419c25.06 0 45.448-20.388 45.448-45.448v-16.819c0-25.06-20.388-45.448-45.448-45.448z" fill="#000000" opacity="1" data-original="#000000" class=""></path><circle cx="291.43" cy="87.977" r="10.122" fill="#000000" opacity="1" data-original="#000000" class=""></circle><circle cx="220.57" cy="425.04" r="10.122" fill="#000000" opacity="1" data-original="#000000" class=""></circle></g></svg>