<svg xmlns="http://www.w3.org/2000/svg" version="1.1" xmlns:xlink="http://www.w3.org/1999/xlink" width="512" height="512" x="0" y="0" viewBox="0 0 512 512" style="enable-background:new 0 0 512 512" xml:space="preserve" class=""><g><path d="M437.019 74.981C388.667 26.629 324.38 0 256 0S123.333 26.629 74.981 74.981C26.629 123.333 0 187.62 0 256s26.629 132.667 74.981 181.019C123.333 485.371 187.62 512 256 512s132.667-26.629 181.019-74.981C485.371 388.667 512 324.38 512 256s-26.629-132.667-74.981-181.019zM59.229 358.409C43.209 327.753 34.133 292.919 34.133 256c0-36.919 9.076-71.753 25.095-102.408l81.416 40.709c-9.876 18.392-15.489 39.401-15.489 61.699s5.613 43.307 15.49 61.701l-81.416 40.708zM256 34.133c36.919 0 71.753 9.076 102.408 25.095l-40.709 81.416c-18.392-9.876-39.401-15.489-61.699-15.489s-43.307 5.613-61.701 15.49L153.59 59.229c30.657-16.02 65.491-25.096 102.41-25.096zM352.711 256c0 53.327-43.385 96.711-96.711 96.711S159.289 309.326 159.289 256s43.385-96.711 96.711-96.711c53.327 0 96.711 43.385 96.711 96.711zM256 477.867c-36.919 0-71.753-9.076-102.408-25.095l40.709-81.416c18.392 9.876 39.401 15.489 61.699 15.489s43.307-5.613 61.701-15.49l40.709 81.416c-30.657 16.02-65.491 25.096-102.41 25.096zm115.355-160.166c9.877-18.393 15.49-39.402 15.49-61.701s-5.613-43.307-15.49-61.701l81.416-40.709c16.02 30.656 25.096 65.491 25.096 102.409 0 36.919-9.076 71.753-25.095 102.408l-81.417-40.706z" fill="#000000" opacity="1" data-original="#000000" class=""></path></g></svg>